<mxfile host="app.diagrams.net" modified="2020-11-01T07:13:52.012Z" agent="5.0 (Macintosh; Intel Mac OS X 10_14_6) AppleWebKit/537.36 (KHTML, like Gecko) Chrome/86.0.4240.111 Safari/537.36" etag="DdByHMJEmbUvMeNSq0v4" version="13.8.7" type="github">
  <diagram id="IStgRV735I_nuAD8T4o0" name="Page-1">
    <mxGraphModel dx="1186" dy="519" grid="1" gridSize="10" guides="1" tooltips="1" connect="1" arrows="1" fold="1" page="1" pageScale="1" pageWidth="827" pageHeight="1169" math="0" shadow="0">
      <root>
        <mxCell id="0" />
        <mxCell id="1" parent="0" />
        <mxCell id="BcHdcXnDhFALoYUniSFb-13" style="edgeStyle=orthogonalEdgeStyle;rounded=0;orthogonalLoop=1;jettySize=auto;html=1;exitX=0.5;exitY=1;exitDx=0;exitDy=0;exitPerimeter=0;entryX=0.5;entryY=0;entryDx=0;entryDy=0;" edge="1" parent="1" source="BcHdcXnDhFALoYUniSFb-1" target="BcHdcXnDhFALoYUniSFb-3">
          <mxGeometry relative="1" as="geometry" />
        </mxCell>
        <mxCell id="BcHdcXnDhFALoYUniSFb-31" value="取出令牌" style="edgeLabel;html=1;align=center;verticalAlign=middle;resizable=0;points=[];" vertex="1" connectable="0" parent="BcHdcXnDhFALoYUniSFb-13">
          <mxGeometry x="-0.3" y="1" relative="1" as="geometry">
            <mxPoint x="29" y="6" as="offset" />
          </mxGeometry>
        </mxCell>
        <mxCell id="BcHdcXnDhFALoYUniSFb-1" value="" style="shape=cylinder3;whiteSpace=wrap;html=1;boundedLbl=1;backgroundOutline=1;size=15;" vertex="1" parent="1">
          <mxGeometry x="360" y="150" width="60" height="80" as="geometry" />
        </mxCell>
        <mxCell id="BcHdcXnDhFALoYUniSFb-7" style="edgeStyle=orthogonalEdgeStyle;rounded=0;orthogonalLoop=1;jettySize=auto;html=1;exitX=0.5;exitY=1;exitDx=0;exitDy=0;entryX=0.5;entryY=0;entryDx=0;entryDy=0;entryPerimeter=0;" edge="1" parent="1" source="BcHdcXnDhFALoYUniSFb-2" target="BcHdcXnDhFALoYUniSFb-1">
          <mxGeometry relative="1" as="geometry" />
        </mxCell>
        <mxCell id="BcHdcXnDhFALoYUniSFb-14" value="放入木桶" style="edgeLabel;html=1;align=center;verticalAlign=middle;resizable=0;points=[];" vertex="1" connectable="0" parent="BcHdcXnDhFALoYUniSFb-7">
          <mxGeometry y="2" relative="1" as="geometry">
            <mxPoint x="26" y="-5" as="offset" />
          </mxGeometry>
        </mxCell>
        <mxCell id="BcHdcXnDhFALoYUniSFb-8" style="edgeStyle=orthogonalEdgeStyle;rounded=0;orthogonalLoop=1;jettySize=auto;html=1;exitX=1;exitY=0.5;exitDx=0;exitDy=0;strokeColor=#CC6600;" edge="1" parent="1" source="BcHdcXnDhFALoYUniSFb-2">
          <mxGeometry relative="1" as="geometry">
            <mxPoint x="470" y="103" as="targetPoint" />
          </mxGeometry>
        </mxCell>
        <mxCell id="BcHdcXnDhFALoYUniSFb-2" value="" style="rhombus;whiteSpace=wrap;html=1;" vertex="1" parent="1">
          <mxGeometry x="375" y="88" width="30" height="30" as="geometry" />
        </mxCell>
        <mxCell id="BcHdcXnDhFALoYUniSFb-20" style="edgeStyle=orthogonalEdgeStyle;rounded=0;orthogonalLoop=1;jettySize=auto;html=1;exitX=1;exitY=0.5;exitDx=0;exitDy=0;" edge="1" parent="1" source="BcHdcXnDhFALoYUniSFb-3">
          <mxGeometry relative="1" as="geometry">
            <mxPoint x="470" y="285" as="targetPoint" />
          </mxGeometry>
        </mxCell>
        <mxCell id="BcHdcXnDhFALoYUniSFb-29" style="edgeStyle=orthogonalEdgeStyle;rounded=0;orthogonalLoop=1;jettySize=auto;html=1;exitX=0.5;exitY=1;exitDx=0;exitDy=0;strokeColor=#994C00;" edge="1" parent="1" source="BcHdcXnDhFALoYUniSFb-3" target="BcHdcXnDhFALoYUniSFb-23">
          <mxGeometry relative="1" as="geometry" />
        </mxCell>
        <mxCell id="BcHdcXnDhFALoYUniSFb-3" value="" style="rhombus;whiteSpace=wrap;html=1;" vertex="1" parent="1">
          <mxGeometry x="375" y="270" width="30" height="30" as="geometry" />
        </mxCell>
        <mxCell id="BcHdcXnDhFALoYUniSFb-6" value="" style="endArrow=classic;html=1;entryX=0;entryY=0.5;entryDx=0;entryDy=0;" edge="1" parent="1" target="BcHdcXnDhFALoYUniSFb-2">
          <mxGeometry width="50" height="50" relative="1" as="geometry">
            <mxPoint x="260" y="103" as="sourcePoint" />
            <mxPoint x="370" y="108" as="targetPoint" />
          </mxGeometry>
        </mxCell>
        <mxCell id="BcHdcXnDhFALoYUniSFb-9" value="令牌生产" style="edgeLabel;html=1;align=center;verticalAlign=middle;resizable=0;points=[];" vertex="1" connectable="0" parent="BcHdcXnDhFALoYUniSFb-6">
          <mxGeometry x="-0.3684" relative="1" as="geometry">
            <mxPoint x="24" as="offset" />
          </mxGeometry>
        </mxCell>
        <mxCell id="BcHdcXnDhFALoYUniSFb-10" value="桶是否已满" style="text;html=1;strokeColor=none;fillColor=none;align=center;verticalAlign=middle;whiteSpace=wrap;rounded=0;" vertex="1" parent="1">
          <mxGeometry x="357" y="68" width="68" height="20" as="geometry" />
        </mxCell>
        <mxCell id="BcHdcXnDhFALoYUniSFb-12" value="已满丢弃" style="text;html=1;align=center;verticalAlign=middle;resizable=0;points=[];autosize=1;" vertex="1" parent="1">
          <mxGeometry x="470" y="93" width="60" height="20" as="geometry" />
        </mxCell>
        <mxCell id="BcHdcXnDhFALoYUniSFb-15" value="" style="endArrow=classic;html=1;entryX=0;entryY=0.5;entryDx=0;entryDy=0;" edge="1" parent="1">
          <mxGeometry width="50" height="50" relative="1" as="geometry">
            <mxPoint x="260" y="284.5" as="sourcePoint" />
            <mxPoint x="375" y="284.5" as="targetPoint" />
          </mxGeometry>
        </mxCell>
        <mxCell id="BcHdcXnDhFALoYUniSFb-16" value="请求流量" style="edgeLabel;html=1;align=center;verticalAlign=middle;resizable=0;points=[];" vertex="1" connectable="0" parent="BcHdcXnDhFALoYUniSFb-15">
          <mxGeometry x="-0.3684" relative="1" as="geometry">
            <mxPoint x="24" as="offset" />
          </mxGeometry>
        </mxCell>
        <mxCell id="BcHdcXnDhFALoYUniSFb-19" value="是否有令牌" style="text;html=1;strokeColor=none;fillColor=none;align=center;verticalAlign=middle;whiteSpace=wrap;rounded=0;" vertex="1" parent="1">
          <mxGeometry x="390" y="295" width="70" height="20" as="geometry" />
        </mxCell>
        <mxCell id="BcHdcXnDhFALoYUniSFb-22" value="获取令牌放行" style="text;html=1;align=center;verticalAlign=middle;resizable=0;points=[];autosize=1;" vertex="1" parent="1">
          <mxGeometry x="470" y="275" width="90" height="20" as="geometry" />
        </mxCell>
        <mxCell id="BcHdcXnDhFALoYUniSFb-23" value="无令牌被拒" style="text;html=1;align=center;verticalAlign=middle;resizable=0;points=[];autosize=1;" vertex="1" parent="1">
          <mxGeometry x="350" y="350" width="80" height="20" as="geometry" />
        </mxCell>
        <mxCell id="BcHdcXnDhFALoYUniSFb-30" value="令牌桶" style="text;html=1;strokeColor=none;fillColor=none;align=center;verticalAlign=middle;whiteSpace=wrap;rounded=0;" vertex="1" parent="1">
          <mxGeometry x="425" y="200" width="40" height="20" as="geometry" />
        </mxCell>
      </root>
    </mxGraphModel>
  </diagram>
</mxfile>
